<?xml version="1.0" encoding="UTF-8"?>
<svg xmlns="http://www.w3.org/2000/svg" version="1.1" xmlns:xlink="http://www.w3.org/1999/xlink" viewBox="0 0 800 1072">
  <defs>
    <style>
      .cls-1 {
        fill: url(#linear-gradient-15);
      }

      .cls-2 {
        fill: url(#linear-gradient-13);
      }

      .cls-3 {
        fill: url(#linear-gradient-2);
      }

      .cls-4 {
        fill: url(#linear-gradient-10);
      }

      .cls-5 {
        fill: url(#linear-gradient-12);
      }

      .cls-6 {
        fill: #fff;
      }

      .cls-7 {
        mask: url(#mask);
      }

      .cls-8 {
        fill: url(#linear-gradient-4);
      }

      .cls-9 {
        fill: url(#linear-gradient-3);
      }

      .cls-10 {
        fill: url(#linear-gradient-5);
      }

      .cls-11 {
        fill: url(#linear-gradient-8);
      }

      .cls-12 {
        fill: url(#linear-gradient-14);
      }

      .cls-13 {
        fill: url(#linear-gradient-7);
      }

      .cls-14 {
        fill: url(#linear-gradient-9);
      }

      .cls-15 {
        fill: url(#linear-gradient-11);
      }

      .cls-16 {
        fill: url(#linear-gradient-6);
      }

      .cls-17 {
        fill: url(#linear-gradient);
      }
    </style>
    <mask id="mask" x="32" y="29.5" width="832" height="760" maskUnits="userSpaceOnUse">
      <g id="crescent">
        <circle class="cls-6" cx="400" cy="421.5" r="368"/>
        <circle cx="536" cy="357.5" r="328"/>
      </g>
    </mask>
    <linearGradient id="linear-gradient" x1="101.9" y1="956" x2="102.9" y2="955" gradientTransform="translate(-74938 703681) scale(736 -736)" gradientUnits="userSpaceOnUse">
      <stop offset="0" stop-color="#f4d27a"/>
      <stop offset=".6" stop-color="#e0b250"/>
      <stop offset="1" stop-color="#b6862f"/>
    </linearGradient>
    <linearGradient id="linear-gradient-2" x1="101.4" y1="956.8" x2="102.6" y2="955.6" gradientTransform="translate(-20658 199251.1) scale(208 -208)" gradientUnits="userSpaceOnUse">
      <stop offset="0" stop-color="#f4d27a"/>
      <stop offset=".6" stop-color="#e0b250"/>
      <stop offset="1" stop-color="#b6862f"/>
    </linearGradient>
    <linearGradient id="linear-gradient-3" x1="101.2" y1="957.2" x2="102.4" y2="956" gradientTransform="translate(-14426 141163.4) scale(147.2 -147.2)" gradientUnits="userSpaceOnUse">
      <stop offset="0" stop-color="#f4d27a"/>
      <stop offset=".6" stop-color="#e0b250"/>
      <stop offset="1" stop-color="#b6862f"/>
    </linearGradient>
    <linearGradient id="linear-gradient-4" x1="49.5" y1="980.2" x2="76.4" y2="980.2" gradientTransform="matrix(1,0,0,1,0,0)" xlink:href="#linear-gradient"/>
    <linearGradient id="linear-gradient-5" x1="49.5" y1="921.7" x2="155.3" y2="921.7" gradientTransform="matrix(1,0,0,1,0,0)" xlink:href="#linear-gradient"/>
    <linearGradient id="linear-gradient-6" x1="175.8" y1="921.6" x2="272.8" y2="921.6" gradientTransform="matrix(1,0,0,1,0,0)" xlink:href="#linear-gradient"/>
    <linearGradient id="linear-gradient-7" x1="227.4" y1="945.9" x2="246.6" y2="945.9" gradientTransform="matrix(1,0,0,1,0,0)" xlink:href="#linear-gradient"/>
    <linearGradient id="linear-gradient-8" x1="345.1" y1="927.5" x2="364.3" y2="927.5" gradientTransform="matrix(1,0,0,1,0,0)" xlink:href="#linear-gradient"/>
    <linearGradient id="linear-gradient-9" x1="293.5" y1="921.7" x2="386.3" y2="921.7" gradientTransform="matrix(1,0,0,1,0,0)" xlink:href="#linear-gradient"/>
    <linearGradient id="linear-gradient-10" x1="396.6" y1="921.6" x2="500.6" y2="921.6" gradientTransform="matrix(1,0,0,1,0,0)" xlink:href="#linear-gradient"/>
    <linearGradient id="linear-gradient-11" x1="396.4" y1="990.3" x2="445" y2="990.3" gradientTransform="matrix(1,0,0,1,0,0)" xlink:href="#linear-gradient"/>
    <linearGradient id="linear-gradient-12" x1="570.3" y1="824.3" x2="589.5" y2="824.3" gradientTransform="matrix(1,0,0,1,0,0)" xlink:href="#linear-gradient"/>
    <linearGradient id="linear-gradient-13" x1="520.2" y1="921.2" x2="630.7" y2="921.2" gradientTransform="matrix(1,0,0,1,0,0)" xlink:href="#linear-gradient"/>
    <linearGradient id="linear-gradient-14" x1="649.2" y1="990.3" x2="697.8" y2="990.3" gradientTransform="matrix(1,0,0,1,0,0)" xlink:href="#linear-gradient"/>
    <linearGradient id="linear-gradient-15" x1="649.5" y1="921.6" x2="753.4" y2="921.6" gradientTransform="matrix(1,0,0,1,0,0)" xlink:href="#linear-gradient"/>
  </defs>
  <!-- Generator: Adobe Illustrator 28.7.5, SVG Export Plug-In . SVG Version: 1.2.0 Build 176)  -->
  <g>
    <g id="Layer_1">
      <g class="cls-7">
        <circle class="cls-17" cx="400" cy="421.5" r="368"/>
      </g>
      <polygon class="cls-3" points="691.1 357.3 565 483.5 438.8 357.3 565 231.2 691.1 357.3"/>
      <polygon class="cls-9" points="654.2 446.6 475.7 446.6 475.7 268 654.2 268 654.2 446.6"/>
      <g>
        <rect class="cls-8" x="49.5" y="965.8" width="26.8" height="28.8"/>
        <path class="cls-10" d="M85.8,853.3c-7.2,3-13.5,7.1-18.9,12.3-5.4,5.2-9.6,11.3-12.8,18.3-3.1,7-4.7,14.4-4.7,22.4v35h76.1v24.6h-39.7v28.8h69.3v-82.2h-76.1v-6.1c0-4,.8-7.7,2.3-11.1,1.5-3.5,3.6-6.5,6.3-9.1,2.7-2.6,5.8-4.7,9.5-6.1,3.6-1.5,7.5-2.2,11.6-2.2h46.4v-28.8h-46.4c-8.1,0-15.8,1.5-23,4.5Z"/>
        <path class="cls-16" d="M211.7,853.3c-7.1,3-13.4,7.1-18.7,12.3-5.4,5.2-9.6,11.3-12.6,18.2-3.1,6.9-4.6,14.3-4.6,22.2v88.4h97v-28.6h-67.4v-41.5h63.2v-28.8h-61.3c2.3-5.4,5.9-9.7,10.8-12.9,4.9-3.2,10.4-4.9,16.5-4.9h38.1v-28.8h-38.1c-8.1,0-15.8,1.5-22.9,4.5Z"/>
        <path class="cls-13" d="M240.1,944h6.5v-8.3h-6.5c-3.5,0-6.5,1.2-8.9,3.6-2.5,2.4-3.7,5.3-3.7,8.7v8.1h19.2v-8.3h-10.7c0-1.1.4-2,1.2-2.8.8-.7,1.8-1.1,2.9-1.1Z"/>
        <path class="cls-11" d="M364.3,929.4h-10.7c0-1.1.4-2.1,1.2-2.9.8-.8,1.8-1.2,2.9-1.2h6.5v-8.1h-6.5c-3.5,0-6.5,1.2-8.9,3.6-2.5,2.4-3.7,5.3-3.7,8.7v8.1h19.2v-8.3Z"/>
        <polygon class="cls-14" points="323.1 849.1 293.5 849.1 293.5 994.4 386.3 994.4 386.3 965.8 323.1 965.8 323.1 849.1"/>
        <path class="cls-4" d="M444.2,854.8c-9.5,4-17.8,9.4-24.9,16.2-7,6.9-12.6,14.9-16.7,24.2-4.1,9.3-6.1,19.1-6.1,29.6v55.1h29.6v-55.1c0-6.2,1.2-12.1,3.5-17.6,2.3-5.5,5.5-10.3,9.5-14.5,4-4.2,8.8-7.6,14.3-10.3,5.5-2.7,11.4-4.2,17.7-4.7v47.5h-34.9v28.8h34.9v40.5h29.4v-145.6h-25.9c-10.8,0-20.9,2-30.4,5.9Z"/>
        <rect class="cls-15" x="396.4" y="986.2" width="48.6" height="8.3"/>
        <path class="cls-5" d="M589.5,826.4h-10.9c.3-2.7,1.7-4,4.4-4h6.5v-8.3h-6.5c-3.5,0-6.5,1.2-8.9,3.6-2.5,2.4-3.7,5.3-3.7,8.7v8.1h19.2v-8.1Z"/>
        <path class="cls-2" d="M601.1,916.2h-13.3c-12.4,0-21.8-2.4-28.2-7.3-6.5-4.9-9.7-11.9-9.7-21.1v-39h-29.6v39c0,8.9,1.6,16.8,4.7,23.8,3.1,7,7.6,13,13.4,17.9,5.8,4.9,12.9,8.8,21.3,11.4,8.4,2.7,17.8,4,28.2,4h13.3c-.1,5.5-2.2,10.2-6.2,14-4,3.8-8.8,5.7-14.5,5.7h-53.4v28.8h53.4c7,0,13.5-1.3,19.5-3.8,6-2.5,11.3-6,15.9-10.4,4.6-4.4,8.2-9.5,10.9-15.4,2.7-5.9,4-12.2,4-19v-96.2h-29.6v67.4Z"/>
        <rect class="cls-12" x="649.2" y="986.2" width="48.6" height="8.3"/>
        <path class="cls-1" d="M727.5,848.8c-10.8,0-20.9,2-30.4,5.9-9.5,4-17.8,9.4-24.9,16.2-7,6.9-12.6,14.9-16.7,24.2-4.1,9.3-6.1,19.1-6.1,29.6v55.1h29.6v-55.1c0-6.2,1.2-12.1,3.5-17.6,2.3-5.5,5.5-10.3,9.5-14.5,4-4.2,8.8-7.6,14.3-10.3,5.5-2.7,11.4-4.2,17.7-4.7v47.5h-34.9v28.8h34.9v40.5h29.4v-145.6h-25.9Z"/>
      </g>
    </g>
  </g>
</svg>